<?xml version="1.0" encoding="utf-8"?>
<!-- Generator: Adobe Illustrator 22.0.1, SVG Export Plug-In . SVG Version: 6.00 Build 0)  -->
<svg version="1.1" id="Layer_1" xmlns="http://www.w3.org/2000/svg" xmlns:xlink="http://www.w3.org/1999/xlink" width="38px" height="38px"
	 viewBox="0 -10 65 50" xml:space="preserve" >
<style type="text/css">
	.st0{fill:#0000FF;}
</style>
<g>
	<path class="st0" d="M42.6,7.7c6.1,0,7.4,2.3,7.4,5.8c0,5.1-3.6,5.8-7.1,5.8l-15.5,0l10.7,7.6h2.8c2.1,0,3.3,0.8,4.6,2.9l11.8,19.9
		H67L54,28.2c-0.9-1.5-1.7-2.6-2.6-3.6c3.8-1.7,6.9-5.6,6.9-11.7c0-5.9-2.6-13-15.1-13H33.2H0l10.9,7.7"/>
	<path class="st0" d="M4.9,40.4c-0.8,3.1-1.2,6.2-1,9.3h11.6c-0.1-2.2,0.1-4.4,0.7-6.6c1.5-5.7,5.3-10.4,10.7-13.4
		c0.9-0.5,1.5-0.8,2.5-1.2l-10.1-7.1C12,25.8,7,32.5,4.9,40.4z"/>
</g>
</svg>
